<svg width="680" height="820" viewBox="0 0 680 820" xmlns="http://www.w3.org/2000/svg" style="background:#fff;font-family:Arial,sans-serif">

<!-- lane dividers -->
<line x1="50" y1="162" x2="640" y2="162" stroke="#ccc" stroke-width="0.5" stroke-dasharray="4 4"/>
<line x1="50" y1="326" x2="640" y2="326" stroke="#ccc" stroke-width="0.5" stroke-dasharray="4 4"/>
<line x1="50" y1="490" x2="640" y2="490" stroke="#ccc" stroke-width="0.5" stroke-dasharray="4 4"/>
<line x1="50" y1="654" x2="640" y2="654" stroke="#ccc" stroke-width="0.5" stroke-dasharray="4 4"/>

<!-- LAYER LABELS -->
<text x="28" y="108" font-size="11" fill="#999" text-anchor="middle" transform="rotate(-90,28,108)">physical</text>
<text x="28" y="248" font-size="11" fill="#999" text-anchor="middle" transform="rotate(-90,28,248)">sensing</text>
<text x="28" y="412" font-size="11" fill="#999" text-anchor="middle" transform="rotate(-90,28,412)">platform</text>
<text x="28" y="572" font-size="11" fill="#999" text-anchor="middle" transform="rotate(-90,28,572)">musification</text>
<text x="28" y="728" font-size="11" fill="#999" text-anchor="middle" transform="rotate(-90,28,728)">output</text>

<!-- ═══ LAYER 1: PHYSICAL ═══ -->
<rect x="60" y="38" width="560" height="112" rx="10" fill="none" stroke="#bbb" stroke-width="0.8" stroke-dasharray="6 3"/>
<text x="76" y="56" font-size="10" fill="#999">David Geffen Galleries — 900ft monolithic slab</text>

<!-- 56 TFP -->
<rect x="76" y="64" width="110" height="72" rx="8" fill="#F1EFE8" stroke="#B4B2A9" stroke-width="0.8"/>
<text x="131" y="96" font-size="13" font-weight="600" fill="#444" text-anchor="middle">56 TFP</text>
<text x="131" y="114" font-size="11" fill="#666" text-anchor="middle">isolators</text>

<!-- concrete -->
<rect x="202" y="64" width="110" height="72" rx="8" fill="#F1EFE8" stroke="#B4B2A9" stroke-width="0.8"/>
<text x="257" y="96" font-size="13" font-weight="600" fill="#444" text-anchor="middle">concrete</text>
<text x="257" y="114" font-size="11" fill="#666" text-anchor="middle">slab / structure</text>

<!-- facade -->
<rect x="328" y="64" width="110" height="72" rx="8" fill="#F1EFE8" stroke="#B4B2A9" stroke-width="0.8"/>
<text x="383" y="96" font-size="13" font-weight="600" fill="#444" text-anchor="middle">facade</text>
<text x="383" y="114" font-size="11" fill="#666" text-anchor="middle">viscous dampers</text>

<!-- ground -->
<rect x="454" y="64" width="110" height="72" rx="8" fill="#F1EFE8" stroke="#B4B2A9" stroke-width="0.8"/>
<text x="509" y="96" font-size="13" font-weight="600" fill="#444" text-anchor="middle">ground</text>
<text x="509" y="114" font-size="11" fill="#666" text-anchor="middle">seismic input</text>

<!-- arrows phys -> sensing -->
<defs>
  <marker id="arr" viewBox="0 0 10 10" refX="8" refY="5" markerWidth="5" markerHeight="5" orient="auto-start-reverse">
    <path d="M2 1L8 5L2 9" fill="none" stroke="#999" stroke-width="1.5" stroke-linecap="round" stroke-linejoin="round"/>
  </marker>
  <marker id="arrT" viewBox="0 0 10 10" refX="8" refY="5" markerWidth="5" markerHeight="5" orient="auto-start-reverse">
    <path d="M2 1L8 5L2 9" fill="none" stroke="#0F6E56" stroke-width="1.5" stroke-linecap="round" stroke-linejoin="round"/>
  </marker>
  <marker id="arrP" viewBox="0 0 10 10" refX="8" refY="5" markerWidth="5" markerHeight="5" orient="auto-start-reverse">
    <path d="M2 1L8 5L2 9" fill="none" stroke="#534AB7" stroke-width="1.5" stroke-linecap="round" stroke-linejoin="round"/>
  </marker>
  <marker id="arrA" viewBox="0 0 10 10" refX="8" refY="5" markerWidth="5" markerHeight="5" orient="auto-start-reverse">
    <path d="M2 1L8 5L2 9" fill="none" stroke="#BA7517" stroke-width="1.5" stroke-linecap="round" stroke-linejoin="round"/>
  </marker>
  <marker id="arrC" viewBox="0 0 10 10" refX="8" refY="5" markerWidth="5" markerHeight="5" orient="auto-start-reverse">
    <path d="M2 1L8 5L2 9" fill="none" stroke="#993C1D" stroke-width="1.5" stroke-linecap="round" stroke-linejoin="round"/>
  </marker>
</defs>

<line x1="131" y1="136" x2="131" y2="178" stroke="#999" stroke-width="0.8" marker-end="url(#arr)"/>
<line x1="257" y1="136" x2="257" y2="178" stroke="#999" stroke-width="0.8" marker-end="url(#arr)"/>
<line x1="383" y1="136" x2="383" y2="178" stroke="#999" stroke-width="0.8" marker-end="url(#arr)"/>
<line x1="509" y1="136" x2="509" y2="178" stroke="#999" stroke-width="0.8" marker-end="url(#arr)"/>

<!-- ═══ LAYER 2: SENSING ═══ -->
<rect x="76" y="180" width="130" height="60" rx="8" fill="#E1F5EE" stroke="#0F6E56" stroke-width="0.8"/>
<text x="141" y="206" font-size="13" font-weight="600" fill="#085041" text-anchor="middle">laser displacement</text>
<text x="141" y="224" font-size="11" fill="#0F6E56" text-anchor="middle">x56 TFP bearings</text>

<rect x="222" y="180" width="130" height="60" rx="8" fill="#E1F5EE" stroke="#0F6E56" stroke-width="0.8"/>
<text x="287" y="206" font-size="13" font-weight="600" fill="#085041" text-anchor="middle">triaxial accel.</text>
<text x="287" y="224" font-size="11" fill="#0F6E56" text-anchor="middle">base + super + roof</text>

<rect x="368" y="180" width="130" height="60" rx="8" fill="#E1F5EE" stroke="#0F6E56" stroke-width="0.8"/>
<text x="433" y="206" font-size="13" font-weight="600" fill="#085041" text-anchor="middle">fiber optic strain</text>
<text x="433" y="224" font-size="11" fill="#0F6E56" text-anchor="middle">embedded in slab</text>

<rect x="514" y="180" width="120" height="60" rx="8" fill="#E1F5EE" stroke="#0F6E56" stroke-width="0.8"/>
<text x="574" y="206" font-size="13" font-weight="600" fill="#085041" text-anchor="middle">damper sensors</text>
<text x="574" y="224" font-size="11" fill="#0F6E56" text-anchor="middle">facade movement</text>

<!-- API annotation -->
<rect x="192" y="256" width="192" height="26" rx="5" fill="none" stroke="#EF9F27" stroke-width="0.9"/>
<circle cx="205" cy="269" r="5" fill="#EF9F27"/>
<text x="216" y="274" font-size="11" fill="#BA7517">API / data feed access point</text>

<!-- arrows sensing -> platform -->
<line x1="141" y1="240" x2="141" y2="342" stroke="#0F6E56" stroke-width="0.8" marker-end="url(#arrT)"/>
<line x1="287" y1="240" x2="287" y2="342" stroke="#0F6E56" stroke-width="0.8" marker-end="url(#arrT)"/>
<line x1="433" y1="240" x2="433" y2="342" stroke="#0F6E56" stroke-width="0.8" marker-end="url(#arrT)"/>
<line x1="574" y1="240" x2="574" y2="342" stroke="#0F6E56" stroke-width="0.8" marker-end="url(#arrT)"/>

<!-- ═══ LAYER 3: PLATFORM ═══ -->
<rect x="60" y="344" width="560" height="134" rx="10" fill="none" stroke="#0F6E56" stroke-width="0.8" stroke-dasharray="6 3" opacity="0.6"/>
<text x="76" y="362" font-size="10" fill="#0F6E56">OasisPlus // Kinemetrics</text>

<rect x="76" y="370" width="126" height="60" rx="8" fill="#E1F5EE" stroke="#0F6E56" stroke-width="0.8"/>
<text x="139" y="396" font-size="13" font-weight="600" fill="#085041" text-anchor="middle">double integration</text>
<text x="139" y="414" font-size="11" fill="#0F6E56" text-anchor="middle">accel → disp + vel</text>

<rect x="218" y="370" width="126" height="60" rx="8" fill="#E1F5EE" stroke="#0F6E56" stroke-width="0.8"/>
<text x="281" y="396" font-size="13" font-weight="600" fill="#085041" text-anchor="middle">digital twin</text>
<text x="281" y="414" font-size="11" fill="#0F6E56" text-anchor="middle">vs structural model</text>

<rect x="360" y="370" width="126" height="60" rx="8" fill="#E1F5EE" stroke="#0F6E56" stroke-width="0.8"/>
<text x="423" y="396" font-size="13" font-weight="600" fill="#085041" text-anchor="middle">BOSI scale</text>
<text x="423" y="414" font-size="11" fill="#0F6E56" text-anchor="middle">composite alert level</text>

<rect x="502" y="370" width="110" height="60" rx="8" fill="#E1F5EE" stroke="#0F6E56" stroke-width="0.8"/>
<text x="557" y="396" font-size="13" font-weight="600" fill="#085041" text-anchor="middle">SAFE reports</text>
<text x="557" y="414" font-size="11" fill="#0F6E56" text-anchor="middle">post-event export</text>

<!-- arrows platform -> musification -->
<line x1="139" y1="430" x2="139" y2="506" stroke="#534AB7" stroke-width="0.8" marker-end="url(#arrP)"/>
<line x1="281" y1="430" x2="281" y2="506" stroke="#534AB7" stroke-width="0.8" marker-end="url(#arrP)"/>
<line x1="423" y1="430" x2="423" y2="506" stroke="#534AB7" stroke-width="0.8" marker-end="url(#arrP)"/>
<line x1="557" y1="430" x2="557" y2="506" stroke="#BA7517" stroke-width="0.8" marker-end="url(#arrA)"/>

<!-- ═══ LAYER 4: MUSIFICATION ═══ -->
<rect x="60" y="508" width="420" height="134" rx="10" fill="none" stroke="#534AB7" stroke-width="0.8" stroke-dasharray="6 3" opacity="0.7"/>
<text x="76" y="526" font-size="10" fill="#534AB7">SeisClaw / SOS musification engine</text>

<rect x="76" y="534" width="120" height="60" rx="8" fill="#EEEDFE" stroke="#534AB7" stroke-width="0.8"/>
<text x="136" y="560" font-size="13" font-weight="600" fill="#26215C" text-anchor="middle">grain position</text>
<text x="136" y="578" font-size="11" fill="#534AB7" text-anchor="middle">← TFP displacement</text>

<rect x="216" y="534" width="120" height="60" rx="8" fill="#EEEDFE" stroke="#534AB7" stroke-width="0.8"/>
<text x="276" y="560" font-size="13" font-weight="600" fill="#26215C" text-anchor="middle">grain density</text>
<text x="276" y="578" font-size="11" fill="#534AB7" text-anchor="middle">← acceleration G</text>

<rect x="356" y="534" width="120" height="60" rx="8" fill="#EEEDFE" stroke="#534AB7" stroke-width="0.8"/>
<text x="416" y="560" font-size="13" font-weight="600" fill="#26215C" text-anchor="middle">grain envelope</text>
<text x="416" y="578" font-size="11" fill="#534AB7" text-anchor="middle">← damping ratio</text>

<!-- master gain (amber, outside SeisClaw box) -->
<rect x="502" y="534" width="120" height="60" rx="8" fill="#FAEEDA" stroke="#BA7517" stroke-width="0.8"/>
<text x="562" y="560" font-size="13" font-weight="600" fill="#412402" text-anchor="middle">master gain</text>
<text x="562" y="578" font-size="11" fill="#854F0B" text-anchor="middle">← BOSI level</text>

<!-- collect lines to merge point -->
<line x1="136" y1="594" x2="136" y2="624" stroke="#534AB7" stroke-width="0.6"/>
<line x1="276" y1="594" x2="276" y2="624" stroke="#534AB7" stroke-width="0.6"/>
<line x1="416" y1="594" x2="416" y2="624" stroke="#534AB7" stroke-width="0.6"/>
<line x1="562" y1="594" x2="562" y2="624" stroke="#BA7517" stroke-width="0.6"/>
<line x1="136" y1="624" x2="326" y2="640" stroke="#534AB7" stroke-width="0.6"/>
<line x1="276" y1="624" x2="320" y2="640" stroke="#534AB7" stroke-width="0.6"/>
<line x1="416" y1="624" x2="334" y2="640" stroke="#534AB7" stroke-width="0.6"/>
<line x1="562" y1="624" x2="340" y2="640" stroke="#BA7517" stroke-width="0.6"/>

<!-- down arrow to outputs -->
<line x1="330" y1="640" x2="330" y2="656" stroke="#993C1D" stroke-width="1.2" marker-end="url(#arrC)"/>

<!-- ═══ LAYER 5: OUTPUT ═══ -->
<!-- fan out -->
<path d="M330 668 L330 676 L158 676 L158 686" fill="none" stroke="#993C1D" stroke-width="0.8" marker-end="url(#arrC)"/>
<path d="M330 668 L330 676 L330 686" fill="none" stroke="#993C1D" stroke-width="0.8" marker-end="url(#arrC)"/>
<path d="M330 668 L330 676 L500 676 L500 686" fill="none" stroke="#993C1D" stroke-width="0.8" marker-end="url(#arrC)"/>

<rect x="80" y="688" width="156" height="60" rx="8" fill="#FAECE7" stroke="#993C1D" stroke-width="0.8"/>
<text x="158" y="714" font-size="13" font-weight="600" fill="#4A1B0C" text-anchor="middle">Holosonics</text>
<text x="158" y="732" font-size="11" fill="#993C1D" text-anchor="middle">parametric speakers</text>

<rect x="252" y="688" width="156" height="60" rx="8" fill="#FAECE7" stroke="#993C1D" stroke-width="0.8"/>
<text x="330" y="714" font-size="13" font-weight="600" fill="#4A1B0C" text-anchor="middle">sound baths</text>
<text x="330" y="732" font-size="11" fill="#993C1D" text-anchor="middle">periodic gallery events</text>

<rect x="424" y="688" width="156" height="60" rx="8" fill="#FAECE7" stroke="#993C1D" stroke-width="0.8"/>
<text x="502" y="714" font-size="13" font-weight="600" fill="#4A1B0C" text-anchor="middle">live stream</text>
<text x="502" y="732" font-size="11" fill="#993C1D" text-anchor="middle">allshookup.org</text>

<!-- footer -->
<text x="340" y="800" font-size="10" fill="#bbb" text-anchor="middle">TROJAN TREMORS — signal chain schematic // LACMA David Geffen Galleries</text>
</svg>
